<svg width="170" height="81" viewBox="0 0 170 81" fill="none" xmlns="http://www.w3.org/2000/svg">
<g filter="url(#filter0_d_6_1137)">
<g clip-path="url(#paint0_diamond_6_1137_clip_path)" data-figma-skip-parse="true"><g transform="matrix(0.0989423 -0.00389086 0.00284333 0.0714894 59.7133 58.1777)"><rect x="0" y="0" width="1106.39" height="857.637" fill="url(#paint0_diamond_6_1137)" opacity="1" shape-rendering="crispEdges"/><rect x="0" y="0" width="1106.39" height="857.637" transform="scale(1 -1)" fill="url(#paint0_diamond_6_1137)" opacity="1" shape-rendering="crispEdges"/><rect x="0" y="0" width="1106.39" height="857.637" transform="scale(-1 1)" fill="url(#paint0_diamond_6_1137)" opacity="1" shape-rendering="crispEdges"/><rect x="0" y="0" width="1106.39" height="857.637" transform="scale(-1)" fill="url(#paint0_diamond_6_1137)" opacity="1" shape-rendering="crispEdges"/></g></g><path d="M58.807 28.9036L58.9933 7.04062H56.7573C56.7573 7.04062 56.8607 8.24631 56.7573 8.8934C56.6049 9.84679 56.5847 10.4164 56.1983 11.302C55.9649 11.8372 55.6203 12.2284 55.2667 12.4137C54.913 12.599 54.894 12.599 54.5214 12.599H54.5213C53.9943 12.599 52.099 11.1168 52.099 11.1168C52.099 11.1168 50.6617 10.0405 49.6767 9.44925C48.423 8.69669 47.6803 8.32774 46.3227 7.78173C44.9786 7.24113 44.3769 6.84558 42.7824 6.48477C41.5679 6.20993 40.4843 6.02008 39.2421 5.92893C37.1376 5.77452 36.0926 5.65861 33.8385 5.74366C32.6002 5.79038 31.7125 5.94883 30.4845 6.11422C28.7006 6.35448 27.5494 6.52282 25.8262 7.04062C23.9754 7.59676 23.0942 8.24033 21.3542 9.07869C19.4105 10.0152 18.4069 10.5471 16.6959 11.8579C15.4704 12.7967 14.8131 13.3686 13.7146 14.4518C12.5432 15.6069 11.9107 16.1048 10.9196 17.4163C10.0345 18.5875 9.42941 19.4877 8.68364 20.7513C7.89285 22.0911 7.65111 22.6711 7.00665 24.0863C6.11423 26.0461 5.67974 27.3753 5.14333 29.4594C4.46973 32.0766 4.02532 36.1294 4.02532 36.1294C4.02532 36.1294 3.96835 39.9695 4.02532 42.4289C4.06725 44.2388 4.17131 45.4499 4.398 47.2462C4.6486 49.2319 4.82783 50.1254 5.32965 52.0635C5.7259 53.5938 6.01331 54.3143 6.63399 55.769C7.25791 57.2314 7.66151 58.1208 8.49729 59.4746C9.26812 60.7232 9.6412 61.4688 10.5469 62.6244C11.4648 63.7954 13.1556 65.4036 13.1556 65.4036C13.1556 65.4036 15.5476 67.2887 17.2549 68.368C18.8479 69.3751 19.7913 69.7003 21.5405 70.4061C23.5041 71.1983 24.684 71.6409 26.7578 72.0736C28.9132 72.5233 30.1506 72.6657 32.3478 72.8147C34.6709 72.9723 35.6159 72.9902 37.9378 72.8147C38.667 72.7596 39.64 72.5713 40.3601 72.4442C41.8782 72.1761 43.9004 71.5178 43.9004 71.5178C43.9004 71.5178 46.8722 70.3944 48.5587 69.4797C50.6083 68.368 51.54 67.4416 53.776 66.7005C54.3973 66.4946 54.8317 66.4946 55.453 66.7005C56.012 66.8858 56.5381 67.6269 56.7573 68.5533C56.9765 69.4797 57.13 70.0355 57.3163 71.5178H59.5523V50.2107C59.5523 49.6273 59.6641 48.5432 59.7386 48.1726C59.9249 47.2462 60.1113 47.0609 60.4839 46.6904C61.1427 46.0353 63.6516 45.764 63.6516 45.764V43.9112H37.3788V45.764C37.3788 45.764 40.0234 45.7419 41.6644 46.1345C42.6267 46.3648 43.3414 46.5051 44.0867 46.8756C45.0543 47.3567 45.5483 48.1003 45.95 49.099C46.3227 50.0254 46.509 51.1371 46.509 52.3264V66.1447C46.509 66.7005 45.6606 67.6615 44.8321 68.368C44.0165 69.0635 43.3914 69.2307 42.4097 69.665C41.1483 70.223 40.4114 70.5162 39.0558 70.7767C36.7684 71.2161 35.3684 71.0892 33.0931 70.5914C30.0738 69.9308 28.3226 69.114 26.0125 67.0711C24.4244 65.6667 23.7422 64.6275 22.6585 62.8097C21.6451 61.1096 21.2605 60.0447 20.6089 58.1777C19.7755 55.7901 19.6228 54.3552 19.1182 51.8782C18.7952 50.2925 18.5687 49.3968 18.3729 47.802C18.1158 45.7081 18.0973 44.5363 18.0002 42.4289C17.877 39.7536 17.9841 38.2442 18.1866 35.5736C18.3352 33.6135 18.4473 32.5142 18.7456 30.5711C19.0814 28.3827 19.2743 27.1474 19.8635 25.0127C20.5398 22.5626 20.9708 21.1314 22.0995 18.8985C23.2878 16.5479 24.0513 15.2911 25.8262 13.3401C27.4959 11.5047 28.6682 10.5325 30.8571 9.44925C32.4435 8.66418 33.3816 8.34687 35.1428 8.15229C36.8198 7.96701 37.7654 7.96494 39.4284 8.15229C41.0597 8.33607 41.9854 8.51928 43.5277 9.07869C45.1483 9.66649 46.1911 9.98096 47.627 10.9315C48.7055 11.6453 49.2813 12.0983 50.2357 12.9695C51.7182 14.323 52.2853 15.1929 53.4033 17.0457C54.5213 18.8985 54.9709 20.1565 55.453 22.2335C56.012 24.6421 56.3057 26.1346 56.571 28.9036H58.807Z" data-figma-gradient-fill="{&#34;type&#34;:&#34;GRADIENT_DIAMOND&#34;,&#34;stops&#34;:[{&#34;color&#34;:{&#34;r&#34;:0.83529412746429443,&#34;g&#34;:0.015686275437474251,&#34;b&#34;:0.96470588445663452,&#34;a&#34;:1.0},&#34;position&#34;:0.24983018636703491},{&#34;color&#34;:{&#34;r&#34;:0.60392159223556519,&#34;g&#34;:0.16470588743686676,&#34;b&#34;:0.69803923368453979,&#34;a&#34;:1.0},&#34;position&#34;:0.74818539619445801}],&#34;stopsVar&#34;:[{&#34;color&#34;:{&#34;r&#34;:0.83529412746429443,&#34;g&#34;:0.015686275437474251,&#34;b&#34;:0.96470588445663452,&#34;a&#34;:1.0},&#34;position&#34;:0.24983018636703491},{&#34;color&#34;:{&#34;r&#34;:0.60392159223556519,&#34;g&#34;:0.16470588743686676,&#34;b&#34;:0.69803923368453979,&#34;a&#34;:1.0},&#34;position&#34;:0.74818539619445801}],&#34;transform&#34;:{&#34;m00&#34;:197.88467407226562,&#34;m01&#34;:5.6866621971130371,&#34;m02&#34;:-42.072376251220703,&#34;m10&#34;:-7.7817258834838867,&#34;m11&#34;:142.97882080078125,&#34;m12&#34;:-9.4208803176879883},&#34;opacity&#34;:1.0,&#34;blendMode&#34;:&#34;NORMAL&#34;,&#34;visible&#34;:true}"/>
<g clip-path="url(#paint1_diamond_6_1137_clip_path)" data-figma-skip-parse="true"><g transform="matrix(0.0989423 -0.00389086 0.00284333 0.0714894 59.7133 58.1777)"><rect x="0" y="0" width="1106.39" height="857.637" fill="url(#paint1_diamond_6_1137)" opacity="1" shape-rendering="crispEdges"/><rect x="0" y="0" width="1106.39" height="857.637" transform="scale(1 -1)" fill="url(#paint1_diamond_6_1137)" opacity="1" shape-rendering="crispEdges"/><rect x="0" y="0" width="1106.39" height="857.637" transform="scale(-1 1)" fill="url(#paint1_diamond_6_1137)" opacity="1" shape-rendering="crispEdges"/><rect x="0" y="0" width="1106.39" height="857.637" transform="scale(-1)" fill="url(#paint1_diamond_6_1137)" opacity="1" shape-rendering="crispEdges"/></g></g><path d="M129.427 71.5178H64.0243V69.4797C64.0243 69.4797 64.7063 69.5033 65.1423 69.4797C66.0262 69.4318 66.5429 69.4005 67.3782 69.1091C67.9924 68.8949 68.3638 68.7761 68.8689 68.368C69.4337 67.9118 69.6587 67.5316 69.9869 66.8858C70.3552 66.1612 70.5459 64.8826 70.5459 64.8826V9.63452C70.5459 9.63452 70.459 8.61472 70.3596 7.96701C70.2458 7.22589 70.1732 6.67005 69.9869 6.11421C69.821 5.61922 69.59 5.39265 69.2416 5.00254C68.8642 4.58001 68.4224 4.37055 67.9372 4.07614C67.4642 3.78907 67.1672 3.66648 66.6329 3.5203C66.1368 3.38458 65.8419 3.37111 65.3286 3.33503C64.8205 3.2993 64.0243 3.33503 64.0243 3.33503V1.11168H73.7135C74.1501 1.11168 74.3951 1.12552 74.8315 1.11168C75.6349 1.08618 76.075 1.03526 76.8812 0.926396C77.6776 0.818843 78.1378 0.686083 78.9308 0.555838C79.2969 0.495711 79.4987 0.442914 79.8625 0.370558L80.7942 0.185279V64.4772C80.7942 64.4772 80.835 65.2676 80.9805 65.7741C81.126 66.2806 81.2891 66.6069 81.5395 67.0711C81.88 67.7023 82.2498 68.1481 82.8438 68.5533C83.4149 68.9429 83.8108 69.0687 84.4528 69.2728L84.5208 69.2944C84.8935 69.413 85.6388 69.4797 86.3841 69.4797C87.2573 69.4797 87.7504 69.5571 88.6201 69.4797C89.1326 69.4341 89.4208 69.3992 89.9244 69.2944C90.8253 69.1069 91.4175 69.0936 92.1604 68.5533C92.8301 68.0663 93.0952 67.6244 93.4647 66.8858C93.8656 66.0845 94.0237 65.5574 94.0237 64.6624V9.44924C94.0237 8.78215 93.992 8.24558 93.8374 7.59645C93.6991 7.01585 93.6893 6.85279 93.4647 6.29949C93.2452 5.75854 93.0879 5.45648 92.7194 5.00254C92.298 4.48343 91.998 4.22116 91.4151 3.89086C90.8238 3.55578 90.2483 3.4559 89.5805 3.34L89.5518 3.33503C88.7633 3.19813 87.5021 3.33503 87.5021 3.33503V1.11168H97.1914C98.2127 1.11168 98.7875 1.05979 99.8 0.926396C100.607 0.820137 101.056 0.734453 101.85 0.555838C102.659 0.373685 103.527 0.185279 103.527 0.185279L104.458 0V64.8477C104.458 64.8477 104.391 65.8978 104.645 66.5152C104.943 67.2396 105.175 67.6622 105.763 68.1827C106.37 68.7208 106.832 68.9336 107.626 69.1091C108.336 69.2661 108.954 69.3842 109.676 69.2944C110.817 69.1525 111.548 68.866 112.471 68.1827C113.091 67.7234 113.335 67.333 113.775 66.7005C114.109 66.2208 114.52 65.4036 114.52 65.4036C114.884 64.5353 115.079 63.9213 115.266 63.3655C115.266 63.3655 115.693 62.0916 116.011 60.9569C116.196 60.2956 116.236 60.3106 116.384 59.6599C116.597 58.7182 116.888 57.7432 117.129 56.8807C117.393 55.9323 117.431 55.4226 117.688 54.4721C117.94 53.5398 118.009 52.9993 118.247 52.0635C118.451 51.2637 118.806 50.0254 118.806 50.0254C118.806 50.0254 118.999 49.2592 119.179 48.5431C119.362 47.8101 119.54 47.2345 119.738 46.5051C119.99 45.5729 120.245 45.0322 120.483 44.0964C120.687 43.2967 120.792 42.7969 121.042 42.0584C121.307 41.2766 121.411 40.7517 121.601 40.0203C121.769 39.3744 121.806 38.9987 121.974 38.3528C122.164 37.6214 122.333 37.229 122.533 36.5C122.685 35.9426 122.762 35.6194 122.892 35.0726L122.905 35.0178C123.06 34.3686 123.135 34.228 123.278 33.7208C123.502 32.9265 123.762 32.0533 123.837 31.6827C123.911 31.3122 124.064 30.8517 124.21 30.2005C124.355 29.5493 124.408 29.1773 124.582 28.533C124.821 27.649 124.905 27.3585 125.141 26.4949C125.28 25.9867 125.459 25.3832 125.514 25.198C125.596 24.9239 125.696 24.4667 125.887 23.901C126.115 23.2254 126.236 22.5891 126.446 21.8629C126.674 21.07 126.796 20.4381 127.005 19.6396C127.155 19.0621 127.174 18.8368 127.377 18.1574C127.508 17.7186 127.613 17.4827 127.75 17.0457C127.907 16.5427 127.936 16.3046 128.123 15.7487C128.44 14.8022 128.382 14.8223 128.495 14.2665C128.516 14.1619 128.495 13.7107 128.495 13.1548V11.8579C128.495 11.5343 128.454 11.2209 128.309 10.9315C128.123 10.5609 128.062 10.4572 127.75 10.1904C127.474 9.95452 127.325 9.80637 127.005 9.63452C126.575 9.40418 125.995 9.32926 125.328 9.26396C124.784 9.21084 124.103 9.26396 123.557 9.26396H122.16L122.905 7.04061H150.482C150.855 7.04061 151.414 7.13325 151.973 7.22589L154.209 7.59645C154.209 7.59645 155.543 7.95698 156.259 8.15228C157.08 8.37644 157.537 8.53514 158.308 8.8934C159.315 9.36062 160.014 9.54764 160.917 10.1904C161.758 10.7888 162.271 11.2821 162.967 12.0431C163.672 12.8154 163.945 13.1704 164.457 14.0812C164.966 14.9854 165.279 15.4965 165.575 16.4898C165.824 17.3265 165.869 17.8276 165.946 18.6903L165.948 18.7132C166.038 19.7222 165.993 20.2951 165.948 21.3071C165.909 22.1775 165.708 22.6602 165.575 23.5305C165.527 23.8502 165.325 24.3305 165.203 24.8274C165.055 25.4279 164.922 25.7247 164.644 26.3096C164.337 26.9538 163.712 27.9772 163.712 27.9772C163.712 27.9772 163.187 28.9094 162.78 29.4594C162.322 30.0791 162.047 30.3436 161.476 30.9416C160.943 31.4992 160.752 31.73 160.172 32.2386C159.514 32.8147 159.192 33.1936 158.495 33.7208C157.739 34.2917 157.252 34.5224 156.445 35.0178C155.723 35.4609 155.326 35.724 154.582 36.1294C153.868 36.5182 153.465 36.7352 152.718 37.0558C151.936 37.3915 151.457 37.6625 150.669 37.9822C149.854 38.3123 149.439 38.4089 148.619 38.7234C147.975 38.9702 147.609 39.1015 146.942 39.2792C146.225 39.4702 145.079 39.6497 145.079 39.6497L143.215 40.2056C143.215 40.2056 144.238 40.3138 144.892 40.3909C145.475 40.4595 146.037 40.6631 146.383 40.7614L147.687 41.132C148.029 41.2292 148.265 41.3121 148.687 41.4609L148.805 41.5025C149.328 41.6864 149.737 41.8731 150.11 42.0584C150.724 42.3636 151.1 42.4579 151.787 42.7995C152.159 42.9848 152.753 43.5308 153.277 44.0964C153.77 44.6286 154.036 44.9497 154.395 45.5787C154.783 46.2562 154.957 46.6738 155.141 47.4315C155.261 47.9289 155.327 48.2168 155.327 48.7284V52.9898C155.327 54.222 155.245 54.9118 155.141 56.1396C155.079 56.8642 155.027 57.2688 154.954 57.9924C154.882 58.7159 154.835 59.1211 154.768 59.8452C154.687 60.7128 154.621 61.1981 154.582 62.0685C154.536 63.0805 154.523 63.6512 154.582 64.6624C154.624 65.3884 154.62 65.803 154.768 66.5152C154.875 67.0311 154.89 67.348 155.141 67.8122C155.481 68.4434 155.774 68.8481 156.445 69.1091C157.055 69.3464 157.494 69.2954 158.122 69.1091C158.9 68.8781 159.251 68.4623 159.765 67.8521L159.799 67.8122C160.28 67.2415 160.406 66.816 160.731 66.1447C160.971 65.6481 161.071 65.3542 161.29 64.8477C161.508 64.3412 161.627 64.056 161.849 63.5508C162.135 62.8974 162.408 62.2538 162.594 61.8833C162.78 61.5127 163.153 60.5863 163.153 60.5863L165.575 60.401C165.575 60.401 165.253 61.6484 165.016 62.4391C164.688 63.5355 164.531 64.1639 164.085 65.2183C163.706 66.113 163.459 66.6034 162.967 67.4416C162.386 68.4294 162.051 68.9923 161.29 69.8503C160.574 70.657 160.153 71.1258 159.24 71.703C158.691 72.0503 158.354 72.206 157.749 72.4442C156.978 72.7478 156.529 73 155.7 73H152.532C151.561 73 150.938 72.6087 150.11 72.2589C149.236 71.8901 148.94 71.7905 148.246 71.1472C147.522 70.4761 147.21 69.9837 146.756 69.1091C146.36 68.3461 146.002 67.9069 145.824 67.039C145.451 65.2183 145.638 64.2919 145.824 62.0685C145.854 61.708 145.819 61.5039 145.824 61.1421C145.836 60.3128 145.928 59.3348 146.01 58.1777C146.077 57.2366 146.112 56.7086 146.197 55.769C146.262 55.0448 146.332 54.6416 146.383 53.9162C146.506 52.184 146.624 51.1894 146.383 49.4695C146.28 48.7387 146.219 48.3248 146.01 47.6168C145.835 47.0235 145.714 46.695 145.451 46.1345C145.093 45.3695 144.924 44.8875 144.333 44.2817C143.785 43.7199 143.353 43.5349 142.656 43.1701C141.699 42.6687 141.089 42.5366 140.048 42.2437C139.045 41.9615 138.465 41.8695 137.439 41.6878C136.426 41.5084 135.854 41.4276 134.83 41.3173C133.887 41.2156 133.356 41.1681 132.408 41.132C131.463 41.0959 129.986 41.132 129.986 41.132C129.986 41.132 129.75 41.992 129.613 42.4289C129.456 42.9319 129.385 43.2192 129.24 43.7259C128.724 45.5327 128.411 46.5398 127.936 48.3579C127.466 50.1584 126.818 52.9898 126.818 52.9898L125.887 56.1396C125.887 56.1396 125.167 58.6322 124.769 60.2157C124.494 61.3053 124.396 61.8833 124.21 62.4391L123.651 64.1066C123.533 64.4566 123.464 65.033 123.464 65.4036V67.2563C123.464 67.6269 123.837 68.0003 124.21 68.368C124.468 68.623 124.722 68.797 124.955 68.9239C125.254 69.0872 125.328 69.1091 126.259 69.2944C127.191 69.4797 128.309 69.665 129.799 69.4797L129.427 71.5178Z" data-figma-gradient-fill="{&#34;type&#34;:&#34;GRADIENT_DIAMOND&#34;,&#34;stops&#34;:[{&#34;color&#34;:{&#34;r&#34;:0.83529412746429443,&#34;g&#34;:0.015686275437474251,&#34;b&#34;:0.96470588445663452,&#34;a&#34;:1.0},&#34;position&#34;:0.24983018636703491},{&#34;color&#34;:{&#34;r&#34;:0.60392159223556519,&#34;g&#34;:0.16470588743686676,&#34;b&#34;:0.69803923368453979,&#34;a&#34;:1.0},&#34;position&#34;:0.74818539619445801}],&#34;stopsVar&#34;:[{&#34;color&#34;:{&#34;r&#34;:0.83529412746429443,&#34;g&#34;:0.015686275437474251,&#34;b&#34;:0.96470588445663452,&#34;a&#34;:1.0},&#34;position&#34;:0.24983018636703491},{&#34;color&#34;:{&#34;r&#34;:0.60392159223556519,&#34;g&#34;:0.16470588743686676,&#34;b&#34;:0.69803923368453979,&#34;a&#34;:1.0},&#34;position&#34;:0.74818539619445801}],&#34;transform&#34;:{&#34;m00&#34;:197.88467407226562,&#34;m01&#34;:5.6866621971130371,&#34;m02&#34;:-42.072376251220703,&#34;m10&#34;:-7.7817258834838867,&#34;m11&#34;:142.97882080078125,&#34;m12&#34;:-9.4208803176879883},&#34;opacity&#34;:1.0,&#34;blendMode&#34;:&#34;NORMAL&#34;,&#34;visible&#34;:true}"/>
<path d="M134.843 38H130L130.538 35.8476C130.854 34.807 131.256 33.1572 131.256 33.1572C131.256 33.1572 131.701 31.5195 131.973 30.4667C132.262 29.3483 132.396 28.714 132.69 27.5969C132.894 26.8246 133.047 26.4015 133.229 25.6239C133.391 24.9283 133.587 24.3683 133.767 23.8302C133.946 23.2921 134.123 22.6348 134.305 21.8572C134.468 21.1617 134.671 20.595 134.843 19.8842C135.027 19.1231 135.208 18.675 135.381 17.9112C135.557 17.1322 135.919 15.9382 135.919 15.9382C136.129 15.1677 136.185 14.716 136.457 13.9652C136.692 13.3166 136.828 12.9475 137.175 12.3509C137.477 11.8298 137.674 11.5484 138.071 11.0954C138.229 10.916 138.43 10.5573 138.968 10.1985C139.506 9.83987 139.663 9.7613 140.223 9.48123L140.224 9.48108C140.583 9.30171 140.793 9.17867 141.3 9.12235C142.914 8.94297 144.978 8.92819 147.219 9.3017C148.007 9.43298 148.435 9.58477 149.192 9.83979C149.907 10.0807 150.343 10.1624 150.986 10.5573C151.62 10.9469 151.919 11.2628 152.421 11.8128C152.997 12.4444 153.284 12.8469 153.676 13.6064C154.051 14.3325 154.176 14.786 154.392 15.572L154.394 15.5795C154.583 16.2683 154.655 16.6654 154.752 17.3731C154.972 18.9691 154.927 19.8969 154.752 21.4985C154.699 21.9909 154.646 22.349 154.573 22.9334C154.5 23.5177 154.497 23.8005 154.394 24.3683C154.251 25.1541 154.122 25.5883 153.855 26.3413C153.521 27.2868 152.779 28.673 152.779 28.673C152.779 28.673 152.165 29.7931 151.703 30.4667C151.251 31.1252 150.983 31.4889 150.448 32.081C149.749 32.853 149.306 33.2472 148.475 33.8746C147.746 34.4249 147.302 34.6901 146.502 35.1302C145.623 35.6134 145.104 35.8403 144.17 36.2063C143.345 36.5298 143.103 36.6383 142.258 36.9045C141.56 37.1243 141.121 37.2825 140.285 37.4426C139.593 37.5751 139.083 37.6805 137.892 37.8206C136.701 37.9607 136.098 38 134.843 38Z" fill="#17021A"/>
</g>
<defs>
<filter id="filter0_d_6_1137" x="0" y="0" width="170" height="81" filterUnits="userSpaceOnUse" color-interpolation-filters="sRGB">
<feFlood flood-opacity="0" result="BackgroundImageFix"/>
<feColorMatrix in="SourceAlpha" type="matrix" values="0 0 0 0 0 0 0 0 0 0 0 0 0 0 0 0 0 0 127 0" result="hardAlpha"/>
<feOffset dy="4"/>
<feGaussianBlur stdDeviation="2"/>
<feComposite in2="hardAlpha" operator="out"/>
<feColorMatrix type="matrix" values="0 0 0 0 0 0 0 0 0 0 0 0 0 0 0 0 0 0 0.25 0"/>
<feBlend mode="normal" in2="BackgroundImageFix" result="effect1_dropShadow_6_1137"/>
<feBlend mode="normal" in="SourceGraphic" in2="effect1_dropShadow_6_1137" result="shape"/>
</filter>
<clipPath id="paint0_diamond_6_1137_clip_path"><path d="M58.807 28.9036L58.9933 7.04062H56.7573C56.7573 7.04062 56.8607 8.24631 56.7573 8.8934C56.6049 9.84679 56.5847 10.4164 56.1983 11.302C55.9649 11.8372 55.6203 12.2284 55.2667 12.4137C54.913 12.599 54.894 12.599 54.5214 12.599H54.5213C53.9943 12.599 52.099 11.1168 52.099 11.1168C52.099 11.1168 50.6617 10.0405 49.6767 9.44925C48.423 8.69669 47.6803 8.32774 46.3227 7.78173C44.9786 7.24113 44.3769 6.84558 42.7824 6.48477C41.5679 6.20993 40.4843 6.02008 39.2421 5.92893C37.1376 5.77452 36.0926 5.65861 33.8385 5.74366C32.6002 5.79038 31.7125 5.94883 30.4845 6.11422C28.7006 6.35448 27.5494 6.52282 25.8262 7.04062C23.9754 7.59676 23.0942 8.24033 21.3542 9.07869C19.4105 10.0152 18.4069 10.5471 16.6959 11.8579C15.4704 12.7967 14.8131 13.3686 13.7146 14.4518C12.5432 15.6069 11.9107 16.1048 10.9196 17.4163C10.0345 18.5875 9.42941 19.4877 8.68364 20.7513C7.89285 22.0911 7.65111 22.6711 7.00665 24.0863C6.11423 26.0461 5.67974 27.3753 5.14333 29.4594C4.46973 32.0766 4.02532 36.1294 4.02532 36.1294C4.02532 36.1294 3.96835 39.9695 4.02532 42.4289C4.06725 44.2388 4.17131 45.4499 4.398 47.2462C4.6486 49.2319 4.82783 50.1254 5.32965 52.0635C5.7259 53.5938 6.01331 54.3143 6.63399 55.769C7.25791 57.2314 7.66151 58.1208 8.49729 59.4746C9.26812 60.7232 9.6412 61.4688 10.5469 62.6244C11.4648 63.7954 13.1556 65.4036 13.1556 65.4036C13.1556 65.4036 15.5476 67.2887 17.2549 68.368C18.8479 69.3751 19.7913 69.7003 21.5405 70.4061C23.5041 71.1983 24.684 71.6409 26.7578 72.0736C28.9132 72.5233 30.1506 72.6657 32.3478 72.8147C34.6709 72.9723 35.6159 72.9902 37.9378 72.8147C38.667 72.7596 39.64 72.5713 40.3601 72.4442C41.8782 72.1761 43.9004 71.5178 43.9004 71.5178C43.9004 71.5178 46.8722 70.3944 48.5587 69.4797C50.6083 68.368 51.54 67.4416 53.776 66.7005C54.3973 66.4946 54.8317 66.4946 55.453 66.7005C56.012 66.8858 56.5381 67.6269 56.7573 68.5533C56.9765 69.4797 57.13 70.0355 57.3163 71.5178H59.5523V50.2107C59.5523 49.6273 59.6641 48.5432 59.7386 48.1726C59.9249 47.2462 60.1113 47.0609 60.4839 46.6904C61.1427 46.0353 63.6516 45.764 63.6516 45.764V43.9112H37.3788V45.764C37.3788 45.764 40.0234 45.7419 41.6644 46.1345C42.6267 46.3648 43.3414 46.5051 44.0867 46.8756C45.0543 47.3567 45.5483 48.1003 45.95 49.099C46.3227 50.0254 46.509 51.1371 46.509 52.3264V66.1447C46.509 66.7005 45.6606 67.6615 44.8321 68.368C44.0165 69.0635 43.3914 69.2307 42.4097 69.665C41.1483 70.223 40.4114 70.5162 39.0558 70.7767C36.7684 71.2161 35.3684 71.0892 33.0931 70.5914C30.0738 69.9308 28.3226 69.114 26.0125 67.0711C24.4244 65.6667 23.7422 64.6275 22.6585 62.8097C21.6451 61.1096 21.2605 60.0447 20.6089 58.1777C19.7755 55.7901 19.6228 54.3552 19.1182 51.8782C18.7952 50.2925 18.5687 49.3968 18.3729 47.802C18.1158 45.7081 18.0973 44.5363 18.0002 42.4289C17.877 39.7536 17.9841 38.2442 18.1866 35.5736C18.3352 33.6135 18.4473 32.5142 18.7456 30.5711C19.0814 28.3827 19.2743 27.1474 19.8635 25.0127C20.5398 22.5626 20.9708 21.1314 22.0995 18.8985C23.2878 16.5479 24.0513 15.2911 25.8262 13.3401C27.4959 11.5047 28.6682 10.5325 30.8571 9.44925C32.4435 8.66418 33.3816 8.34687 35.1428 8.15229C36.8198 7.96701 37.7654 7.96494 39.4284 8.15229C41.0597 8.33607 41.9854 8.51928 43.5277 9.07869C45.1483 9.66649 46.1911 9.98096 47.627 10.9315C48.7055 11.6453 49.2813 12.0983 50.2357 12.9695C51.7182 14.323 52.2853 15.1929 53.4033 17.0457C54.5213 18.8985 54.9709 20.1565 55.453 22.2335C56.012 24.6421 56.3057 26.1346 56.571 28.9036H58.807Z"/></clipPath><clipPath id="paint1_diamond_6_1137_clip_path"><path d="M129.427 71.5178H64.0243V69.4797C64.0243 69.4797 64.7063 69.5033 65.1423 69.4797C66.0262 69.4318 66.5429 69.4005 67.3782 69.1091C67.9924 68.8949 68.3638 68.7761 68.8689 68.368C69.4337 67.9118 69.6587 67.5316 69.9869 66.8858C70.3552 66.1612 70.5459 64.8826 70.5459 64.8826V9.63452C70.5459 9.63452 70.459 8.61472 70.3596 7.96701C70.2458 7.22589 70.1732 6.67005 69.9869 6.11421C69.821 5.61922 69.59 5.39265 69.2416 5.00254C68.8642 4.58001 68.4224 4.37055 67.9372 4.07614C67.4642 3.78907 67.1672 3.66648 66.6329 3.5203C66.1368 3.38458 65.8419 3.37111 65.3286 3.33503C64.8205 3.2993 64.0243 3.33503 64.0243 3.33503V1.11168H73.7135C74.1501 1.11168 74.3951 1.12552 74.8315 1.11168C75.6349 1.08618 76.075 1.03526 76.8812 0.926396C77.6776 0.818843 78.1378 0.686083 78.9308 0.555838C79.2969 0.495711 79.4987 0.442914 79.8625 0.370558L80.7942 0.185279V64.4772C80.7942 64.4772 80.835 65.2676 80.9805 65.7741C81.126 66.2806 81.2891 66.6069 81.5395 67.0711C81.88 67.7023 82.2498 68.1481 82.8438 68.5533C83.4149 68.9429 83.8108 69.0687 84.4528 69.2728L84.5208 69.2944C84.8935 69.413 85.6388 69.4797 86.3841 69.4797C87.2573 69.4797 87.7504 69.5571 88.6201 69.4797C89.1326 69.4341 89.4208 69.3992 89.9244 69.2944C90.8253 69.1069 91.4175 69.0936 92.1604 68.5533C92.8301 68.0663 93.0952 67.6244 93.4647 66.8858C93.8656 66.0845 94.0237 65.5574 94.0237 64.6624V9.44924C94.0237 8.78215 93.992 8.24558 93.8374 7.59645C93.6991 7.01585 93.6893 6.85279 93.4647 6.29949C93.2452 5.75854 93.0879 5.45648 92.7194 5.00254C92.298 4.48343 91.998 4.22116 91.4151 3.89086C90.8238 3.55578 90.2483 3.4559 89.5805 3.34L89.5518 3.33503C88.7633 3.19813 87.5021 3.33503 87.5021 3.33503V1.11168H97.1914C98.2127 1.11168 98.7875 1.05979 99.8 0.926396C100.607 0.820137 101.056 0.734453 101.85 0.555838C102.659 0.373685 103.527 0.185279 103.527 0.185279L104.458 0V64.8477C104.458 64.8477 104.391 65.8978 104.645 66.5152C104.943 67.2396 105.175 67.6622 105.763 68.1827C106.37 68.7208 106.832 68.9336 107.626 69.1091C108.336 69.2661 108.954 69.3842 109.676 69.2944C110.817 69.1525 111.548 68.866 112.471 68.1827C113.091 67.7234 113.335 67.333 113.775 66.7005C114.109 66.2208 114.52 65.4036 114.52 65.4036C114.884 64.5353 115.079 63.9213 115.266 63.3655C115.266 63.3655 115.693 62.0916 116.011 60.9569C116.196 60.2956 116.236 60.3106 116.384 59.6599C116.597 58.7182 116.888 57.7432 117.129 56.8807C117.393 55.9323 117.431 55.4226 117.688 54.4721C117.94 53.5398 118.009 52.9993 118.247 52.0635C118.451 51.2637 118.806 50.0254 118.806 50.0254C118.806 50.0254 118.999 49.2592 119.179 48.5431C119.362 47.8101 119.54 47.2345 119.738 46.5051C119.99 45.5729 120.245 45.0322 120.483 44.0964C120.687 43.2967 120.792 42.7969 121.042 42.0584C121.307 41.2766 121.411 40.7517 121.601 40.0203C121.769 39.3744 121.806 38.9987 121.974 38.3528C122.164 37.6214 122.333 37.229 122.533 36.5C122.685 35.9426 122.762 35.6194 122.892 35.0726L122.905 35.0178C123.06 34.3686 123.135 34.228 123.278 33.7208C123.502 32.9265 123.762 32.0533 123.837 31.6827C123.911 31.3122 124.064 30.8517 124.21 30.2005C124.355 29.5493 124.408 29.1773 124.582 28.533C124.821 27.649 124.905 27.3585 125.141 26.4949C125.28 25.9867 125.459 25.3832 125.514 25.198C125.596 24.9239 125.696 24.4667 125.887 23.901C126.115 23.2254 126.236 22.5891 126.446 21.8629C126.674 21.07 126.796 20.4381 127.005 19.6396C127.155 19.0621 127.174 18.8368 127.377 18.1574C127.508 17.7186 127.613 17.4827 127.75 17.0457C127.907 16.5427 127.936 16.3046 128.123 15.7487C128.44 14.8022 128.382 14.8223 128.495 14.2665C128.516 14.1619 128.495 13.7107 128.495 13.1548V11.8579C128.495 11.5343 128.454 11.2209 128.309 10.9315C128.123 10.5609 128.062 10.4572 127.75 10.1904C127.474 9.95452 127.325 9.80637 127.005 9.63452C126.575 9.40418 125.995 9.32926 125.328 9.26396C124.784 9.21084 124.103 9.26396 123.557 9.26396H122.16L122.905 7.04061H150.482C150.855 7.04061 151.414 7.13325 151.973 7.22589L154.209 7.59645C154.209 7.59645 155.543 7.95698 156.259 8.15228C157.08 8.37644 157.537 8.53514 158.308 8.8934C159.315 9.36062 160.014 9.54764 160.917 10.1904C161.758 10.7888 162.271 11.2821 162.967 12.0431C163.672 12.8154 163.945 13.1704 164.457 14.0812C164.966 14.9854 165.279 15.4965 165.575 16.4898C165.824 17.3265 165.869 17.8276 165.946 18.6903L165.948 18.7132C166.038 19.7222 165.993 20.2951 165.948 21.3071C165.909 22.1775 165.708 22.6602 165.575 23.5305C165.527 23.8502 165.325 24.3305 165.203 24.8274C165.055 25.4279 164.922 25.7247 164.644 26.3096C164.337 26.9538 163.712 27.9772 163.712 27.9772C163.712 27.9772 163.187 28.9094 162.78 29.4594C162.322 30.0791 162.047 30.3436 161.476 30.9416C160.943 31.4992 160.752 31.73 160.172 32.2386C159.514 32.8147 159.192 33.1936 158.495 33.7208C157.739 34.2917 157.252 34.5224 156.445 35.0178C155.723 35.4609 155.326 35.724 154.582 36.1294C153.868 36.5182 153.465 36.7352 152.718 37.0558C151.936 37.3915 151.457 37.6625 150.669 37.9822C149.854 38.3123 149.439 38.4089 148.619 38.7234C147.975 38.9702 147.609 39.1015 146.942 39.2792C146.225 39.4702 145.079 39.6497 145.079 39.6497L143.215 40.2056C143.215 40.2056 144.238 40.3138 144.892 40.3909C145.475 40.4595 146.037 40.6631 146.383 40.7614L147.687 41.132C148.029 41.2292 148.265 41.3121 148.687 41.4609L148.805 41.5025C149.328 41.6864 149.737 41.8731 150.11 42.0584C150.724 42.3636 151.1 42.4579 151.787 42.7995C152.159 42.9848 152.753 43.5308 153.277 44.0964C153.77 44.6286 154.036 44.9497 154.395 45.5787C154.783 46.2562 154.957 46.6738 155.141 47.4315C155.261 47.9289 155.327 48.2168 155.327 48.7284V52.9898C155.327 54.222 155.245 54.9118 155.141 56.1396C155.079 56.8642 155.027 57.2688 154.954 57.9924C154.882 58.7159 154.835 59.1211 154.768 59.8452C154.687 60.7128 154.621 61.1981 154.582 62.0685C154.536 63.0805 154.523 63.6512 154.582 64.6624C154.624 65.3884 154.62 65.803 154.768 66.5152C154.875 67.0311 154.89 67.348 155.141 67.8122C155.481 68.4434 155.774 68.8481 156.445 69.1091C157.055 69.3464 157.494 69.2954 158.122 69.1091C158.9 68.8781 159.251 68.4623 159.765 67.8521L159.799 67.8122C160.28 67.2415 160.406 66.816 160.731 66.1447C160.971 65.6481 161.071 65.3542 161.29 64.8477C161.508 64.3412 161.627 64.056 161.849 63.5508C162.135 62.8974 162.408 62.2538 162.594 61.8833C162.78 61.5127 163.153 60.5863 163.153 60.5863L165.575 60.401C165.575 60.401 165.253 61.6484 165.016 62.4391C164.688 63.5355 164.531 64.1639 164.085 65.2183C163.706 66.113 163.459 66.6034 162.967 67.4416C162.386 68.4294 162.051 68.9923 161.29 69.8503C160.574 70.657 160.153 71.1258 159.24 71.703C158.691 72.0503 158.354 72.206 157.749 72.4442C156.978 72.7478 156.529 73 155.7 73H152.532C151.561 73 150.938 72.6087 150.11 72.2589C149.236 71.8901 148.94 71.7905 148.246 71.1472C147.522 70.4761 147.21 69.9837 146.756 69.1091C146.36 68.3461 146.002 67.9069 145.824 67.039C145.451 65.2183 145.638 64.2919 145.824 62.0685C145.854 61.708 145.819 61.5039 145.824 61.1421C145.836 60.3128 145.928 59.3348 146.01 58.1777C146.077 57.2366 146.112 56.7086 146.197 55.769C146.262 55.0448 146.332 54.6416 146.383 53.9162C146.506 52.184 146.624 51.1894 146.383 49.4695C146.28 48.7387 146.219 48.3248 146.01 47.6168C145.835 47.0235 145.714 46.695 145.451 46.1345C145.093 45.3695 144.924 44.8875 144.333 44.2817C143.785 43.7199 143.353 43.5349 142.656 43.1701C141.699 42.6687 141.089 42.5366 140.048 42.2437C139.045 41.9615 138.465 41.8695 137.439 41.6878C136.426 41.5084 135.854 41.4276 134.83 41.3173C133.887 41.2156 133.356 41.1681 132.408 41.132C131.463 41.0959 129.986 41.132 129.986 41.132C129.986 41.132 129.75 41.992 129.613 42.4289C129.456 42.9319 129.385 43.2192 129.24 43.7259C128.724 45.5327 128.411 46.5398 127.936 48.3579C127.466 50.1584 126.818 52.9898 126.818 52.9898L125.887 56.1396C125.887 56.1396 125.167 58.6322 124.769 60.2157C124.494 61.3053 124.396 61.8833 124.21 62.4391L123.651 64.1066C123.533 64.4566 123.464 65.033 123.464 65.4036V67.2563C123.464 67.6269 123.837 68.0003 124.21 68.368C124.468 68.623 124.722 68.797 124.955 68.9239C125.254 69.0872 125.328 69.1091 126.259 69.2944C127.191 69.4797 128.309 69.665 129.799 69.4797L129.427 71.5178Z"/></clipPath><linearGradient id="paint0_diamond_6_1137" x1="0" y1="0" x2="500" y2="500" gradientUnits="userSpaceOnUse">
<stop offset="0.24983" stop-color="#D504F6"/>
<stop offset="0.748185" stop-color="#9A2AB2"/>
</linearGradient>
<linearGradient id="paint1_diamond_6_1137" x1="0" y1="0" x2="500" y2="500" gradientUnits="userSpaceOnUse">
<stop offset="0.24983" stop-color="#D504F6"/>
<stop offset="0.748185" stop-color="#9A2AB2"/>
</linearGradient>
</defs>
</svg>
